IKResults
version=1
nRows=11
nColumns=63
inDegrees=yes

Units are S.I. units (second, meters, Newtons, ...)
If the header above contains a line with 'inDegrees', this indicates whether rotational values are in degrees (yes) or radians (no).

endheader
time	pelvis_tilt	pelvis_list	pelvis_rotation	pelvis_tx	pelvis_ty	pelvis_tz	hip_flexion_r	hip_adduction_r	hip_rotation_r	knee_angle_r	knee_angle_r_beta	ankle_angle_r	subtalar_angle_r	mtp_angle_r	hip_flexion_l	hip_adduction_l	hip_rotation_l	knee_angle_l	knee_angle_l_beta	ankle_angle_l	subtalar_angle_l	mtp_angle_l	L5_S1_Flex_Ext	L5_S1_Lat_Bending	L5_S1_axial_rotation	L4_L5_Flex_Ext	L4_L5_Lat_Bending	L4_L5_axial_rotation	L3_L4_Flex_Ext	L3_L4_Lat_Bending	L3_L4_axial_rotation	L2_L3_Flex_Ext	L2_L3_Lat_Bending	L2_L3_axial_rotation	L1_L2_Flex_Ext	L1_L2_Lat_Bending	L1_L2_axial_rotation	L1_T12_Flex_Ext	L1_T12_Lat_Bending	L1_T12_axial_rotation	Abs_r3	Abs_r2	Abs_r1	Abs_t1	Abs_t2	neck_flexion	neck_bending	neck_rotation	arm_flex_r	arm_add_r	arm_rot_r	elbow_flex_r	pro_sup_r	wrist_flex_r	wrist_dev_r	arm_flex_l	arm_add_l	arm_rot_l	elbow_flex_l	pro_sup_l	wrist_flex_l	wrist_dev_l
      2.03333333	    -47.27067422	     58.84282712	     44.18962922	     -0.87140061	      0.28244025	     -0.23959297	    122.26790969	      1.42740708	      0.57242943	     34.13628011	      0.59579048	    -12.40253394	    -19.07903943	      0.00000000	     84.82559831	     -9.79568726	     10.04466571	     26.62345866	      0.46466701	    -24.17894509	     10.53218716	      0.00000000	      9.40329231	      1.90682363	     -1.44847892	     17.46285414	      2.53607543	     -1.53900886	     15.44866893	      4.63625098	     -1.53900886	     10.74702278	      4.63625098	     -1.26741906	      8.73189723	      3.88839475	     -1.17688913	      5.37304122	      2.95366981	     -1.08635919	     67.16677661	     21.57037031	     -8.05600523	      0.00000000	      0.00000000	    -13.03350367	    -15.98450474	    -16.78534275	    126.45017420	     18.57009807	    280.74364863	     42.07000978	     89.99559364	      0.00000000	      0.00000000	     10.06637215	     16.43690631	     41.46440832	     54.87508202	     89.99559364	      0.00000000	      0.00000000
      2.06666667	    -44.48260829	     59.66741928	     43.10999417	     -0.88101302	      0.28093792	     -0.23672620	    120.63765414	     -0.06017042	      0.64428544	     33.36666656	      0.58235819	    -11.64753154	    -19.29866965	      0.00000000	     81.88506063	     -8.17778469	     11.75596725	     25.34836075	      0.44241235	    -25.76247763	     10.07438443	      0.00000000	      9.16481928	      1.88315647	     -1.55730617	     17.01998589	      2.50459810	     -1.65463780	     15.05688160	      4.57870663	     -1.65463780	     10.47447196	      4.57870663	     -1.36264290	      8.51045119	      3.84013267	     -1.26531126	      5.23677774	      2.91700937	     -1.16797963	     65.46338767	     21.30264259	     -8.66126972	      0.00000000	      0.00000000	    -14.14104691	    -15.34710155	    -18.40789580	    126.91606069	     18.79369499	    282.21724838	     41.52097516	     89.99559364	      0.00000000	      0.00000000	     12.26111260	     16.82162173	     38.90409517	     52.78273870	     89.99559364	      0.00000000	      0.00000000
      2.10000000	    -42.08203670	     60.62808759	     42.36745785	     -0.88922008	      0.27888850	     -0.23536501	    119.13404382	     -1.44658393	      0.90837527	     32.70812983	      0.57086456	    -10.95259030	    -19.43270460	      0.00000000	     78.92738286	     -6.42358749	     13.04307029	     24.08379996	      0.42034161	    -27.65211653	      9.32006834	      0.00000000	      8.90958695	      1.83034316	     -1.78690634	     16.54599392	      2.43435640	     -1.89858798	     14.63756040	      4.45029635	     -1.89858798	     10.18276693	      4.45029635	     -1.56354305	      8.27344244	      3.73243576	     -1.45186140	      5.09093798	      2.83520155	     -1.34017975	     63.64028862	     20.70520784	     -9.93823698	      0.00000000	      0.00000000	    -15.22881939	    -14.59894949	    -19.39495772	    127.44379765	     19.36885630	    282.28786210	     41.04779539	     89.99559364	      0.00000000	      0.00000000	     14.48442011	     16.84761149	     35.89103032	     50.94817216	     89.99559364	      0.00000000	      0.00000000
      2.13333333	    -39.54126474	     61.71209818	     41.36823684	     -0.89619804	      0.27643667	     -0.23509238	    117.51878318	     -2.67866520	      1.17205244	     32.06852168	      0.55970129	    -10.31845994	    -19.51700100	      0.00000000	     75.85499632	     -4.70690703	     14.03095282	     22.85209719	      0.39884434	    -29.71398146	      8.37075196	      0.00000000	      8.60428686	      1.77861608	     -2.12984831	     15.97902112	      2.36555938	     -2.26296383	     14.13598288	      4.32452713	     -2.26296383	      9.83383945	      4.32452713	     -1.86361727	      7.98994078	      3.62695390	     -1.73050175	      4.91648951	      2.75507630	     -1.59738623	     61.45956060	     20.12006078	    -11.84557733	      0.00000000	      0.00000000	    -16.28847814	    -13.87810204	    -19.86718456	    127.75879679	     20.13250180	    282.39479798	     40.44334057	     89.99559364	      0.00000000	      0.00000000	     16.71784629	     16.60485743	     32.35127813	     49.30552066	     89.99559364	      0.00000000	      0.00000000
      2.16666667	    -36.94375216	     63.00086368	     40.22418211	     -0.90193571	      0.27369510	     -0.23564425	    115.83423911	     -3.73170638	      1.62837297	     31.54412911	      0.55054891	     -9.75376437	    -19.57809774	      0.00000000	     72.64643060	     -2.97833040	     14.58019608	     21.60123134	      0.37701261	    -31.93162637	      7.32930830	      0.00000000	      8.25936498	      1.70898653	     -2.54263465	     15.33846671	      2.27295208	     -2.70154931	     13.56931073	      4.15522984	     -2.70154931	      9.43962824	      4.15522984	     -2.22480532	      7.66964632	      3.48496533	     -2.06589065	      4.71940115	      2.64722013	     -1.90697599	     58.99581814	     19.33239740	    -14.14137113	      0.00000000	      0.00000000	    -17.39803686	    -13.12622957	    -19.98780213	    127.90883586	     21.03441973	    282.50310071	     39.80809077	     89.99559364	      0.00000000	      0.00000000	     18.87095493	     16.00548484	     28.59395370	     47.96205189	     89.99559364	      0.00000000	      0.00000000
      2.20000000	    -33.66621464	     64.51309549	     38.32817332	     -0.90677037	      0.27096578	     -0.23674336	    113.86497888	     -4.64987640	      2.07180280	     31.12838136	      0.54329275	     -9.23872396	    -19.61957980	      0.00000000	     69.17529956	     -1.30279220	     14.84326835	     20.40350310	      0.35610831	    -34.15153291	      6.19572459	      0.00000000	      7.83712209	      1.63430633	     -3.00196646	     14.55431943	      2.17362742	     -3.18958936	     12.87560788	      3.97365241	     -3.18958936	      8.95704683	      3.97365241	     -2.62672065	      7.27755157	      3.33267747	     -2.43909774	      4.47813156	      2.53154051	     -2.25147484	     55.97977936	     18.48760007	    -16.69603683	      0.00000000	      0.00000000	    -18.50991475	    -12.50897219	    -20.08778273	    127.79835332	     21.97068697	    283.51631402	     39.21232808	     89.99559364	      0.00000000	      0.00000000	     21.03597061	     15.12385632	     24.82086135	     46.82291890	     89.99559364	      0.00000000	      0.00000000
      2.23333333	    -31.33277303	     66.18678200	     37.04755693	     -0.91019395	      0.26788640	     -0.23809229	    112.23130165	     -5.15957673	      3.00827137	     30.81436990	      0.53781221	     -8.85457053	    -19.65035158	      0.00000000	     65.86851505	      0.31897058	     14.13272376	     18.94669793	      0.33068226	    -36.55309069	      5.17808234	      0.00000000	      7.47475272	      1.51664496	     -3.40890743	     13.88136327	      2.01713779	     -3.62196415	     12.28027124	      3.68757055	     -3.62196415	      8.54289488	      3.68757055	     -2.98279401	      6.94105537	      3.09274240	     -2.76973729	      4.27107370	      2.34928304	     -2.55668058	     53.39141118	     17.15659108	    -18.95932048	      0.00000000	      0.00000000	    -19.78510824	    -11.77179694	    -20.05774576	    127.73883240	     23.08724494	    283.57374016	     38.79332026	     89.99559364	      0.00000000	      0.00000000	     22.76009474	     13.97331479	     21.10228540	     46.12147758	     89.99559364	      0.00000000	      0.00000000
      2.26666667	    -25.09150221	     68.28047487	     32.58137782	     -0.91418734	      0.26607186	     -0.23976896	    109.46360151	     -6.23033083	      3.89691638	     31.00757394	      0.54118426	     -8.15909908	    -19.67322606	      0.00000000	     61.53738946	      2.24119858	     13.96563030	     17.86151546	      0.31174225	    -38.72400152	      4.11469173	      0.00000000	      6.83536227	      1.38912932	     -3.96204185	     12.69395127	      1.84754200	     -4.20966946	     11.22981667	      3.37752903	     -4.20966946	      7.81213554	      3.37752903	     -3.46678662	      6.34731740	      2.83271251	     -3.21915900	      3.90572600	      2.15176132	     -2.97153139	     48.82430915	     15.71410869	    -22.03568815	      0.00000000	      0.00000000	    -20.67510409	    -10.85126376	    -20.13207909	    127.30851947	     23.90211223	    286.55572574	     38.52232605	     89.99559364	      0.00000000	      0.00000000	     25.20218264	     12.31011205	     18.44920477	     45.33544602	     89.99559364	      0.00000000	      0.00000000
      2.30000000	    -24.73974705	     68.96456820	     32.07811540	     -0.91519508	      0.26293129	     -0.24142192	    108.67174147	     -5.94364401	      3.87073042	     30.15440749	      0.52629369	     -8.14202076	    -19.68646685	      0.00000000	     59.46776318	      2.88144094	     13.01922134	     16.09076002	      0.28083674	    -40.81599368	      3.10503727	      0.00000000	      6.71326836	      1.35791271	     -4.12833942	     12.46721068	      1.80602391	     -4.38636063	     11.02922860	      3.30162897	     -4.38636063	      7.67259441	      3.30162897	     -3.61229699	      6.23394100	      2.76905561	     -3.35427578	      3.83596154	      2.10340679	     -3.09625457	     47.95220460	     15.36098021	    -22.96058535	      0.00000000	      0.00000000	    -22.06930312	    -10.80250754	    -20.62391330	    127.31282887	     24.73744773	    286.50800403	     37.68697951	     89.99559364	      0.00000000	      0.00000000	     26.50038148	     11.36548498	     16.80609228	     44.62849338	     89.99559364	      0.00000000	      0.00000000
      2.33333333	     -0.68812829	     72.56524464	     12.68958656	     -0.92417468	      0.26456944	     -0.24202188	    101.63781196	     -8.97756347	      6.16618373	     32.33232388	      0.56430551	     -6.44098281	    -19.70497535	      0.00000000	     50.47223231	      6.40213820	     13.61678805	     15.95343361	      0.27843994	    -42.49871821	      2.09744966	      0.00000000	      5.00647198	      1.01217566	     -5.18337903	      9.29751911	      1.34619363	     -5.50734022	      8.22513281	      2.46100390	     -5.50734022	      5.72189682	      2.46100390	     -4.53545665	      4.64900988	      2.06402861	     -4.21149546	      2.86069809	      1.56786010	     -3.88753427	     35.76072869	     11.44993351	    -28.82839917	      0.00000000	      0.00000000	    -21.53686560	     -8.03128825	    -21.13266006	    126.94978936	     25.40295535	    293.17765815	     39.65663090	     89.99559364	      0.00000000	      0.00000000	     30.69524493	      8.12377309	     13.82385203	     44.32963989	     89.99559364	      0.00000000	      0.00000000
      2.36666667	     86.29413415	     28.40524451	    -42.90345679	     -1.03664723	      0.28807171	     -0.21598430	     28.20805523	    -18.18830962	    -23.11230738	     25.10799725	      0.43821722	     -5.84408996	    -19.63767875	      0.00000000	     -9.20094089	     -3.22945373	     32.76665404	     16.40807307	      0.28637490	    -46.15592769	      3.00536635	      0.00000000	     -8.01378004	      1.42046146	     -8.54570814	    -14.88239092	      1.88921374	     -9.07981489	    -13.16583923	      3.45370999	     -9.07981489	     -9.15894921	      3.45370999	     -7.47749462	     -7.44159615	      2.89660501	     -6.94338786	     -4.57907392	      2.20029480	     -6.40928110	    -57.24162946	     16.06854413	    -47.52866493	      0.00000000	      0.00000000	     21.66955225	      7.11815509	    -43.90584944	    150.45523394	     17.15883877	    297.46855257	     41.25876609	     89.99559364	      0.00000000	      0.00000000	     68.33104407	     -2.49321955	     27.06968777	     39.76557944	     89.99559364	      0.00000000	      0.00000000
